<mxfile host="app.diagrams.net" agent="Mozilla/5.0 (Windows NT 10.0; Win64; x64) AppleWebKit/537.36 (KHTML, like Gecko) Chrome/126.0.0.0 Safari/537.36" version="24.7.4">
  <diagram name="Page-1" id="DUKsDsCgvE7qoUcOOErB">
    <mxGraphModel dx="1674" dy="738" grid="1" gridSize="10" guides="1" tooltips="1" connect="1" arrows="1" fold="1" page="1" pageScale="1" pageWidth="827" pageHeight="1169" math="0" shadow="0">
      <root>
        <mxCell id="0" />
        <mxCell id="1" parent="0" />
        <mxCell id="qoLvdTIRZXSMtm_tBuzf-2" value="画面レイアウト" style="whiteSpace=wrap;html=1;" parent="1" vertex="1">
          <mxGeometry x="160" y="50" width="470" height="640" as="geometry" />
        </mxCell>
        <mxCell id="pxtc52qb0oOZWXCnoTLU-1" value="3" style="rounded=1;whiteSpace=wrap;html=1;fillColor=#f8cecc;strokeColor=#b85450;fontSize=18;" parent="1" vertex="1">
          <mxGeometry x="230" y="720" width="120" height="60" as="geometry" />
        </mxCell>
        <mxCell id="qoLvdTIRZXSMtm_tBuzf-3" value="" style="ellipse;whiteSpace=wrap;html=1;fillColor=#FFE6CC;" parent="1" vertex="1">
          <mxGeometry x="290" y="1035" width="80" height="80" as="geometry" />
        </mxCell>
        <mxCell id="pxtc52qb0oOZWXCnoTLU-2" value="3" style="rounded=1;whiteSpace=wrap;html=1;fillColor=#f8cecc;strokeColor=#b85450;fontSize=18;" parent="1" vertex="1">
          <mxGeometry x="490" y="720" width="120" height="60" as="geometry" />
        </mxCell>
        <mxCell id="EgZoHMYwlGrHTBzt7jll-1" value="" style="shape=cylinder3;whiteSpace=wrap;html=1;boundedLbl=1;backgroundOutline=1;size=15;fillColor=#FFE6CC;" parent="1" vertex="1">
          <mxGeometry x="370" y="885" width="60" height="230" as="geometry" />
        </mxCell>
        <mxCell id="qoLvdTIRZXSMtm_tBuzf-4" value="湯下&lt;div&gt;&lt;br&gt;&lt;/div&gt;" style="ellipse;whiteSpace=wrap;html=1;fillColor=#FFE6CC;" parent="1" vertex="1">
          <mxGeometry x="430" y="1035" width="80" height="80" as="geometry" />
        </mxCell>
        <mxCell id="CLmq52y_J9EmgmOJC0Xj-2" value="" style="endArrow=none;html=1;rounded=0;strokeColor=#FFFF99;" edge="1" parent="1">
          <mxGeometry width="50" height="50" relative="1" as="geometry">
            <mxPoint x="400" y="880" as="sourcePoint" />
            <mxPoint x="470" y="780" as="targetPoint" />
            <Array as="points">
              <mxPoint x="400" y="830" />
              <mxPoint x="410" y="800" />
              <mxPoint x="430" y="790" />
            </Array>
          </mxGeometry>
        </mxCell>
      </root>
    </mxGraphModel>
  </diagram>
</mxfile>
